<svg xmlns="http://www.w3.org/2000/svg" width="1240" height="1240"><path d="M610.5 25.132c-13.266.882-24.494 3.313-32.794 7.103C570.464 35.541 565 40.695 565 44.219c0 4.284 4.307 10.877 11.33 17.344 10.058 9.263 13.341 13.675 14.622 19.651 4.375 20.398 12.721 72.85 13.571 85.286.301 4.4 1.044 13.4 1.651 20 .608 6.6 1.165 26.718 1.238 44.707.128 31.239.226 32.833 2.175 35.5 1.123 1.536 3.674 3.605 5.669 4.597 4.599 2.288 10.06 1.064 14.111-3.165l2.771-2.893.309-34.873c.17-19.18.793-39.598 1.385-45.373.591-5.775 1.327-14.082 1.635-18.46.88-12.53 7.299-54 12.032-77.737 2.717-13.626 3.834-15.453 16.199-26.503 7.439-6.646 11.233-12.356 11.28-16.973.074-7.351-17.244-16.337-36.978-19.187-10.789-1.559-16.213-1.757-27.5-1.008m-249 62.507c-12.063 1.831-32.446 10.23-44.634 18.392-9.574 6.412-23.948 21.444-27.718 28.988-3.841 7.687-3.883 8.954-.431 13.056 3.487 4.144 8.381 6.237 20.783 8.886 5.5 1.174 11.575 2.901 13.5 3.837 3.739 1.818 14.239 13.949 40.855 47.202 23.689 29.595 48.822 67.046 62.724 93.464 7.415 14.091 9.932 16.526 17.094 16.532 3.028.003 5.013-.702 7.231-2.569 3.341-2.811 5.608-9.172 4.535-12.726-.365-1.211-3.947-7.151-7.96-13.201-4.013-6.05-9.862-15.668-12.998-21.373-6.452-11.737-26.35-52.275-31.968-65.127-4.855-11.106-22.243-57.654-24.655-66-2.103-7.277-1.666-11.316 2.579-23.835 4.458-13.148 4.126-20.256-1.106-23.684-2.69-1.763-12.011-2.725-17.831-1.842M861 93.752c-2.564 1.28-3.884 2.859-4.935 5.9-1.557 4.501-1.975 2.116 4.988 28.455l2.138 8.085-3.283 10.154c-11.153 34.498-22.306 60.666-45.884 107.654-6.436 12.826-17.321 31.798-24.943 43.473-5.858 8.974-6.855 12.74-4.722 17.843 2.115 5.062 6.947 7.915 12.453 7.355 5.909-.602 8.131-2.999 15.891-17.145 12.594-22.957 27.246-45.14 53.497-80.998 16.006-21.863 43.555-55.011 48.309-58.126 1.338-.877 8.516-3.086 15.952-4.91 15.093-3.703 19.846-6.066 21.45-10.665 2.176-6.245-1.752-13.707-13.776-26.166-10.561-10.943-22.81-19.156-37.255-24.98-17.908-7.219-32.85-9.441-39.88-5.929m-366.676 67.687c-5.501 1.721-10.645 4.965-13.782 8.693-3.126 3.715-3.298 8.604-.52 14.727 1.088 2.398 1.978 4.707 1.978 5.132 0 .425 3.566 7.239 7.925 15.141 12.041 21.829 18.608 44.965 19.756 69.598.69 14.794 1.81 17.906 7.525 20.897 8.053 4.216 17.877.965 21.843-7.229 2.698-5.572 2.32-8.565-2.335-18.513-5.205-11.123-10.543-28.638-12.872-42.235-1.765-10.308-2.004-14.879-1.574-30.15.568-20.176-.443-29.895-3.447-33.152-3.772-4.089-16.057-5.547-24.497-2.909m229.509 2.685c-8.189 2.313-9.805 8.113-9.821 35.256-.011 17.668-.299 21.171-2.591 31.5-3.456 15.577-7.521 27.555-13.477 39.714-5.181 10.577-5.857 14.285-3.593 19.704 1.788 4.28 8.036 9.664 11.434 9.853 13.377.743 19.15-5.468 19.194-20.651.029-9.82 1.932-20.98 6.003-35.191 3.483-12.16 7.507-21.227 15.375-34.639 9.333-15.909 12.608-23.671 12.632-29.942.015-3.914-6.772-10.956-13.262-13.759-5.944-2.567-16.261-3.436-21.894-1.845M293.582 273.48c-11.034 4.537-19.551 15.723-19.572 25.706-.01 4.616.098 4.773 7.24 10.534 3.988 3.217 10.4 7.815 14.25 10.217 14.99 9.356 18.235 11.573 25 17.084 12.904 10.511 27.353 27.355 34.707 40.46 2.935 5.229 3.98 6.213 8.325 7.837 3.044 1.137 6.402 1.668 8.671 1.371 10.926-1.434 17.164-15.094 11.111-24.332-.901-1.376-5.278-4.9-9.726-7.83-8.861-5.837-18.388-14.669-29.189-27.057-8.937-10.251-11.626-14.269-19.39-28.97-9.863-18.675-17.219-27.526-22.836-27.476-1.47.013-5.336 1.118-8.591 2.456m-155.127 7.433c-2.775 1.591-8.539 6.156-12.81 10.145-11.359 10.608-19.778 22.992-26.235 38.591-7.785 18.807-9.587 36.628-4.244 41.971 4.215 4.216 9.46 4.214 23.862-.007 6.78-1.987 14.104-3.613 16.275-3.613 7.931 0 55.764 17.833 83.697 31.205 39.504 18.91 56.661 28.087 77.32 41.355 11.367 7.301 15.02 8.033 20.768 4.16 4.451-3 6.098-6.318 5.524-11.133-.719-6.039-3.314-8.503-16.383-15.556-16.774-9.053-36.685-21.591-51.886-32.674-7.064-5.15-13.518-9.668-14.343-10.04-3.047-1.376-37.958-28.186-52-39.934-22.707-18.996-22.492-18.721-26.042-33.442-1.65-6.843-3.748-14.161-4.664-16.264-3.538-8.129-10.086-9.785-18.839-4.764m786.73.539c-2.294 2.073-7.162 9.365-12.182 18.25-10.951 19.381-12.834 22.108-22.753 32.943-9.402 10.27-20.032 19.502-31.439 27.304-9.61 6.573-10.886 7.99-11.827 13.139-2.144 11.724 7.767 20.913 19.266 17.861 5.26-1.396 8.247-4.071 11.349-10.165 3.404-6.689 16.71-22.912 26.306-32.075 9.382-8.959 17.904-14.766 33.961-23.14 6.445-3.362 13.697-8.059 16.75-10.849 4.863-4.445 5.383-5.322 5.374-9.07-.011-4.967-3.522-12.909-7.921-17.919-4.064-4.628-14.145-9.731-19.226-9.731-2.971 0-4.7.78-7.658 3.452m160.315 5.341c-5.638 1.165-9.31 8.41-12.523 24.707-2.232 11.327-4.472 14.979-13.88 22.634-63.113 51.353-90.624 71.014-127.779 91.318C915.509 434.09 912 437.369 912 443.5c0 4.677 3.815 9.738 8.597 11.405 5.315 1.853 7.588 1.154 16.997-5.223 16.24-11.005 42.481-24.881 82.906-43.839 12.687-5.95 64.913-25.934 73.877-28.269 6.034-1.572 9.776-1.091 22.237 2.856 11.509 3.647 16.127 4.071 20.372 1.874 5.263-2.723 6.207-5.365 5.652-15.804-1.155-21.707-14.021-47.992-31.887-65.144-11.201-10.753-19.77-15.695-25.251-14.563M171.286 474.967c-4.639 2.829-9.903 10.611-11.836 17.499-2.667 9.501-.488 20.838 4.519 23.517 4.385 2.347 17.947 3.885 33.531 3.802 14.849-.08 16.827.135 27.5 2.987 15.624 4.175 29.797 9.425 39.77 14.73 10.382 5.523 13.955 6.257 19.727 4.052 7.965-3.042 13.2-11.531 11.569-18.762-1.985-8.802-6.522-11.663-20.4-12.868-28.254-2.453-51.518-10.049-71.004-23.183-6.156-4.15-26.11-13.702-28.662-13.722-.825-.006-2.946.87-4.714 1.948m881.755 6.84c-4.608.725-12.15 4.204-22.205 10.243-5.522 3.317-13.482 7.759-17.688 9.871-14.854 7.458-38.33 13.582-56.648 14.776l-9 .587-5.159 5.115c-3.774 3.741-5.358 6.174-5.899 9.061-1.606 8.561 4.971 17.293 13.733 18.233 3.691.395 6.011-.336 15.825-4.989 13.368-6.337 23.011-9.636 39-13.341 9.884-2.29 14.663-2.756 34-3.314 25.262-.729 28.558-1.48 31.675-7.22 2.701-4.973 2.523-18.771-.322-24.951-4.23-9.19-11.382-15.003-17.312-14.071M40.744 557.383c-6.971 4.675-13.721 23.112-15.71 42.912-2.391 23.796 3.805 53.147 13.041 61.775 6.199 5.791 12.607 3.117 26.425-11.027 4.4-4.503 9.265-8.857 10.812-9.673 5.991-3.164 70.78-13.84 99.688-16.427 7.425-.665 30.51-1.422 51.301-1.683l37.801-.475 3.081-2.593c5.653-4.757 6.584-11.319 2.492-17.565-3.05-4.655-6.928-5.514-20.675-4.582-19.932 1.353-77.728-1.763-103.172-5.561-35.653-5.323-65.895-10.95-69.856-12.998-1.611-.834-7.102-5.822-12.201-11.085-9.851-10.167-11.336-11.288-16.504-12.453-2.548-.575-4.004-.255-6.523 1.435M1180 566.595c-1.925.834-8.225 6.136-14 11.783-5.775 5.646-11.85 10.782-13.5 11.413-6.322 2.417-64.196 12.27-80.5 13.705-3.575.315-13.475 1.29-22 2.167-10.264 1.056-27.178 1.672-50.07 1.825-38.039.254-38.208.28-41.481 6.611-2.918 5.642-.759 13.526 4.596 16.782 2.929 1.781 4.634 1.885 22.81 1.385 18.781-.517 50.025.743 68.145 2.748 4.675.518 11.875 1.195 16 1.506 18.372 1.383 77.611 11.702 83.611 14.563 2.305 1.099 8.277 6.29 13.588 11.808 12.565 13.057 17.778 14.86 24.25 8.387 6.139-6.139 11.668-22.166 13.551-39.282 2.611-23.727-4.447-55.055-14.362-63.746-4.137-3.626-5.574-3.85-10.638-1.655M274.5 692.984c-1.65.428-6.392 2.376-10.538 4.33-9.694 4.566-27.794 10.026-40.208 12.127-7.195 1.219-15.308 1.614-31 1.511-22.176-.145-29.547.646-32.71 3.508-4.56 4.127-5.142 18.999-1.102 28.153 2.599 5.888 8.386 12.08 12.041 12.883 3.575.785 14.585-3.701 30.722-12.518 21.03-11.49 44.38-18.013 71.295-19.916 13.237-.936 13.553-1.014 16.201-3.969 5.865-6.546 5.689-16.03-.408-21.991-2.627-2.569-8.731-5.393-10.793-4.994-.275.053-1.85.447-3.5.876m668.685 4.962c-9.516 2.376-14.413 15.016-8.935 23.064 4.464 6.56 6.471 7.335 21.017 8.121 22.622 1.222 44.386 7.926 65.36 20.13 18.503 10.768 22.981 12.843 29.063 13.471l5.415.559 5.383-5.557c6.194-6.395 8.513-12.436 8.51-22.166-.001-6.971-2.069-11.877-6.32-14.997-2.629-1.929-4.614-2.112-29-2.664-25.406-.575-26.547-.689-38.678-3.861-13.556-3.545-23.161-7.087-33.95-12.521-7.562-3.808-12.768-4.851-17.865-3.579m-649.876 82.388c-11.329 7.737-24.624 15.335-42.809 24.464-20.808 10.445-43.46 21.318-51.2 24.576-8.088 3.404-51.896 19.733-60.666 22.612-8.073 2.65-10.823 2.437-25.007-1.939-12.946-3.995-18.5-4.026-22.861-.128-3.263 2.917-3.266 2.928-3.17 12.25.218 21.164 12.748 48.005 30.777 65.926 12.77 12.695 22.911 17.94 28.558 14.771 3.612-2.028 7.504-10.73 10.003-22.366 1.182-5.5 2.953-11.575 3.937-13.5 2.258-4.418 54.833-47.996 73.629-61.031 21.585-14.968 48.165-31.971 61-39.021 19.985-10.979 19.466-10.622 21.084-14.494 3.905-9.347-1.424-17.454-11.475-17.454-3.179 0-5.578 1.085-11.8 5.334m621.762 4.377c-7.285 3.801-9.808 12.141-5.444 17.996 1.162 1.558 8.666 6.49 16.978 11.156 24.836 13.945 43.204 26.232 83.799 56.054 24.148 17.74 51.507 41.077 54.151 46.19.814 1.573 2.606 7.63 3.984 13.461 3.923 16.603 6.697 21.666 12.578 22.958 6.072 1.333 20.254-8.34 31.384-21.407 15.418-18.101 26.239-44.802 25.343-62.536-.433-8.584-1.975-11.003-8.056-12.64-4.079-1.098-3.713-1.168-26.978 5.149l-8.69 2.36-8.81-2.895c-25.423-8.354-49.281-17.615-65.81-25.547-47.96-23.014-66.563-32.894-90-47.797-6.516-4.143-10.094-4.764-14.429-2.502m-552.129 63.227c-5.134 1.578-6.836 3.182-12.517 11.79-6.266 9.494-20.531 24.216-33.591 34.665-4.512 3.61-13.885 9.442-21.693 13.499-14.804 7.69-17.29 9.331-24.025 15.862-4.209 4.081-4.362 4.436-3.771 8.744 1.284 9.368 8.919 20.013 17.188 23.963 2.182 1.043 6.361 2.098 9.287 2.347l5.321.451 5.188-5.619c2.853-3.091 7.63-9.561 10.614-14.38 10.124-16.346 13.872-21.746 20.412-29.407 8.283-9.702 20.425-20.242 32.913-28.57 11.358-7.573 13.391-9.827 14.293-15.842.897-5.979-2.568-13.105-7.561-15.551-4.558-2.232-8.874-2.931-12.058-1.952m488.972 4.02c-7.189 2.172-10.917 7.534-10.91 15.693.005 6.839 2.562 10.423 10.915 15.302 9.664 5.644 19.857 14.036 30.804 25.36 10.107 10.456 14.731 17.113 24.384 35.103 3.516 6.554 8.347 14.092 10.736 16.75 3.869 4.308 4.795 4.834 8.5 4.833 12.87-.002 27.574-14.383 27.635-27.028.036-7.466-2.459-9.475-32.978-26.559-9.381-5.251-12.152-7.531-26-21.395-14.258-14.274-18.057-18.875-25.383-30.739-3.743-6.062-11.395-9.226-17.703-7.32M431.5 907.733c-4.402 1.102-7.38 4.638-13.414 15.926-9.051 16.93-21.809 37.029-35.33 55.659-6.46 8.9-12.165 17.082-12.678 18.182-2.798 5.997-41.067 53.292-50.28 62.138l-6.316 6.065-13.258 3.132c-7.292 1.722-14.596 3.823-16.231 4.669-7.247 3.747-7.883 11.783-1.647 20.837 3.493 5.072 15.174 17.158 21.154 21.887 14.942 11.816 40.668 21.764 56.3 21.769 9.056.004 12.597-1.639 14.236-6.605 1.508-4.57.86-9.29-2.989-21.765-1.676-5.43-3.047-11.874-3.047-14.319 0-4.527 3.051-14.56 11.498-37.808 4.614-12.701 17.274-42.506 18.476-43.5.333-.275 1.89-3.425 3.46-7 10.101-22.992 25.534-51.912 38.921-72.935 7.233-11.358 7.921-14.216 4.818-20.003-2.78-5.184-8.209-7.697-13.673-6.329m350.918 5.203c-4.209 1.769-7.418 6.887-7.418 11.831 0 4.066.875 5.93 7.358 15.674 10.73 16.129 24.243 41.313 34.984 65.203a1086.885 1086.885 0 008.976 19.356c4.427 9.254 20.461 50.963 25.372 66 2.883 8.826 2.698 11.643-1.654 25.228-3.116 9.73-3.903 18.284-2.006 21.827 2.083 3.894 6.685 5.242 15.917 4.664 21.99-1.377 47.113-13.573 64.553-31.339 13.318-13.566 17.83-23.148 13.496-28.658-3.168-4.027-8.021-6.136-21.07-9.157-6.366-1.473-13.168-3.666-15.116-4.872-3.828-2.371-9.694-9.234-35.546-41.584-30.273-37.881-54.786-74.277-68.736-102.052-4.756-9.47-6.816-11.36-13.563-12.44-1.906-.306-4.402-.162-5.547.319M512.99 939.25c-5.999 4.083-7.094 6.521-8.023 17.861-1.613 19.701-7.241 42.577-13.548 55.069-1.478 2.926-5.649 10.045-9.27 15.82-8.43 13.443-14.478 27.224-13.635 31.065.785 3.574 8.295 10.521 14.197 13.131 9.221 4.079 22.604 3.291 27.2-1.602 3.27-3.48 5.005-15.694 4.912-34.594-.072-14.901.18-17.469 2.604-26.5 4.493-16.738 8.365-27.475 14.099-39.092 6.226-12.616 6.941-17.746 3.474-24.908-3.841-7.934-14.915-11.079-22.01-6.25m178.159 2.446c-4.027 1.985-8.013 7.689-8.812 12.612-.485 2.991.425 5.724 5.456 16.391 6.775 14.365 10.099 24.519 13.718 41.915 2.094 10.064 2.474 14.634 2.481 29.815.008 16.845.335 19.617 3.288 27.868 1.598 4.464 5.965 6.184 15.72 6.194 7.106.008 9.402-.42 14-2.604 6.172-2.932 12.514-8.814 13.428-12.455 1.012-4.032-3.087-14.412-11.043-27.963-4.15-7.069-8.58-14.903-9.844-17.411-6.301-12.494-12.787-38.403-14.193-56.694-.661-8.598-.745-8.823-4.76-12.686-6.883-6.623-12.951-8.178-19.439-4.982m-87.216 17.419c-6.326 3.669-6.316 3.614-6.066 32.885.383 44.801-2.988 80.301-13.011 137-4.641 26.258-5.081 27.212-17.966 38.948-8.663 7.89-12.576 14.216-11.338 18.329 3.682 12.234 38.603 22.206 65.987 18.843 18.493-2.27 33.373-7.342 40.067-13.655 6.279-5.922 4.09-11.938-8.895-24.449-4.861-4.684-9.723-9.941-10.805-11.682-3.559-5.733-12.932-60.858-16.38-96.334-2.301-23.677-3.513-55.841-2.825-74.992.669-18.614.005-21.388-6-25.048-4.101-2.501-8.276-2.45-12.768.155" fill="undefined" fill-rule="evenodd"/></svg>